/* XPM */
static char * bottom_right_inactive_xpm[] = {
"5 5 3 1",
" 	c None",
".	c #303030",
"+	c #00FFFF",
"....+",
"...+ ",
"..+  ",
".+   ",
"+    "};
