/* XPM */
static char * bottom_left_inactive_xpm[] = {
"5 5 3 1",
" 	c None",
".	c #00FFFF",
"+	c #303030",
".++++",
" .+++",
"  .++",
"   .+",
"    ."};
