/* XPM */
static char * close_pressed_xpm[] = {
"40 25 4 1",
" 	c #00FFFF",
".	c #FF0000",
"+	c #FFFFFF",
"@	c #FF0101",
"                                        ",
"                                        ",
"                                        ",
"                                        ",
"                                        ",
"........................................",
"........................................",
"........................................",
"........................................",
"........................................",
"........................................",
"........................................",
"........+++++.+...++++.++++.++++........",
"........+...+.+...+..+.+....+...........",
"........+.....+...+..+.+....+..+........",
"........+.....+...+..+....+.+..+........",
"........+...+.+...+..+....+.+...........",
"........+++++.+++.++++.++++.++++........",
"........................................",
"........................................",
"........................................",
"@.......................................",
"........................................",
"........................................",
"........................................"};
