/* XPM */
static char * close_prelight_xpm[] = {
"40 25 4 1",
" 	c #00FFFF",
".	c #FF0000",
"+	c #303030",
"@	c #FFFFFF",
"                                        ",
"                                        ",
"                                        ",
"                                        ",
"                                        ",
"........................................",
"........................................",
"........................................",
"........................................",
"........................................",
"........................................",
"++++++++++++++++++++++++++++++++++++++++",
"++++++++@@@@@+@+++@@@@+@@@@+@@@@++++++++",
"++++++++@+++@+@+++@++@+@++++@+++++++++++",
"++++++++@+++++@+++@++@+@++++@++@++++++++",
"++++++++@+++++@+++@++@++++@+@++@++++++++",
"++++++++@+++@+@+++@++@++++@+@+++++++++++",
"++++++++@@@@@+@@@+@@@@+@@@@+@@@@++++++++",
"++++++++++++++++++++++++++++++++++++++++",
"++++++++++++++++++++++++++++++++++++++++",
"++++++++++++++++++++++++++++++++++++++++",
"++++++++++++++++++++++++++++++++++++++++",
"++++++++++++++++++++++++++++++++++++++++",
"++++++++++++++++++++++++++++++++++++++++",
"++++++++++++++++++++++++++++++++++++++++"};
