/* XPM */
static char * hide_prelight_xpm[] = {
"40 25 5 1",
" 	c #00FFFF",
".	c #303030",
"+	c #FFFFFF",
"@	c #FEFEFE",
"#	c #313130",
"                                        ",
"                                        ",
"                                        ",
"                                        ",
"                                        ",
"........................................",
"........................................",
"........................................",
"........................................",
"........................................",
"........................................",
"........................................",
"....+++++.+.+++..+.+++++.+.++++.+++@....",
"....+.+.+.+.+..+.+.+.+.+.+.+....+.......",
"....+.+.+.+.+..+.+.+.+.+.+.+....+..+....",
"....+.+.+.+.+..+.+.+.+.+.+....+.+..+....",
"....+.+.+.+.+..+.+.+.+.+.+....+.+.......",
"....+.+.+.+.+..+.+.+.+.+.+.++++.++++....",
"........................................",
"........................................",
"........................................",
"........................................",
"........................................",
"........................................",
"......................................##"};
