/* XPM */
static char * left_inactive_xpm[] = {
"5 8 2 1",
" 	c #00FFFF",
".	c #303030",
" ....",
" ....",
" ....",
" ....",
" ....",
" ....",
" ....",
" ...."};
