/* XPM */
static char * maximize_prelight_xpm[] = {
"40 25 9 1",
" 	c #00FFFF",
".	c #303030",
"+	c #FFFFFF",
"@	c #313030",
"#	c #323030",
"$	c #342F2F",
"%	c #352F2F",
"&	c #382F2F",
"*	c #333030",
"                                        ",
"                                        ",
"                                        ",
"                                        ",
"                                        ",
"........................................",
"........................................",
"........................................",
"........................................",
"........................................",
"........................................",
"........................................",
"..+++++.++++.+..+.+.+++++.+.++++.++++...",
"..+.+.+.+..+.+..+.+.+.+.+.+.+....+......",
"..+.+.+.+.@+#+.$+%+%+.+.+&+&+&&.&+&&+&&&",
"#.+.+.+.++++..++..+.+.+@+@+@.@@+@+##+***",
"..+.+.+.+..+.+..+.+.+.+.+.+....+.+......",
"..+.+.+.+..+.+..+.+.+.+.+.+.++++.++++...",
"........................................",
"........................................",
"........................................",
"........................................",
"........................................",
"........................................",
"........................................"};
