/* XPM */
static char * maximize_pressed_xpm[] = {
"40 25 3 1",
" 	c #00FFFF",
".	c #F5E700",
"+	c #FFFFFF",
"                                        ",
"                                        ",
"                                        ",
"                                        ",
"                                        ",
"........................................",
"........................................",
"........................................",
"........................................",
"........................................",
"........................................",
"........................................",
"..+++++.++++.+..+.+.+++++.+.++++.++++...",
"..+.+.+.+..+.+..+.+.+.+.+.+.+....+......",
"..+.+.+.+..+.+..+.+.+.+.+.+.+....+..+...",
"..+.+.+.++++..++..+.+.+.+.+....+.+..+...",
"..+.+.+.+..+.+..+.+.+.+.+.+....+.+......",
"..+.+.+.+..+.+..+.+.+.+.+.+.++++.++++...",
"........................................",
"........................................",
"........................................",
"........................................",
"........................................",
"........................................",
"........................................"};
