/* XPM */
static char * title_2_active_xpm[] = {
"120 25 2 1",
" 	c None",
".	c #00FFFF",
"                                                                                                                        ",
"                                                                                                                        ",
"                                                                                                                        ",
"                                                                                                                        ",
"                                                                                                                        ",
"                                                                                                                        ",
"                                                                                                                        ",
"                                                                                                                        ",
"                                                                                                                        ",
"                                                                                                                        ",
"                                                                                                                        ",
"                                                                                                                        ",
"                                                                                                                        ",
"                                                                                                                        ",
"                                                                                                                        ",
"                                                                                                                        ",
"                                                                                                                        ",
"                                                                                                                        ",
"                                                                                                                        ",
"                                                                                                                        ",
"....................................................................................................................    ",
".....................................................................................................................   ",
"......................................................................................................................  ",
"....................................................................................................................... ",
"........................................................................................................................"};
