/* XPM */
static char * title_5_inactive_xpm[] = {
"2 25 2 1",
" 	c #00FFFF",
".	c #303030",
"  ",
"..",
"..",
"..",
"..",
"..",
"..",
"..",
"..",
"..",
"..",
"..",
"..",
"..",
"..",
"..",
"..",
"..",
"..",
"..",
"..",
"..",
"..",
"..",
".."};
