/* XPM */
static char * title_4_active_xpm[] = {
"25 25 3 1",
" 	c None",
".	c #00FFFF",
"+	c #303030",
"                        .",
"                       ..",
"                      ...",
"                     ....",
"                    .....",
"                   .....+",
"                  .....++",
"                 .....+++",
"                .....++++",
"               .....+++++",
"              .....++++++",
"             .....+++++++",
"            .....++++++++",
"           .....+++++++++",
"          .....++++++++++",
"         .....+++++++++++",
"        .....++++++++++++",
"       .....+++++++++++++",
"      .....++++++++++++++",
"     .....+++++++++++++++",
"    .....++++++++++++++++",
"   .....+++++++++++++++++",
"  .....++++++++++++++++++",
" .....+++++++++++++++++++",
".....++++++++++++++++++++"};
