/* XPM */
static char * title_4_inactive_xpm[] = {
"25 25 6 1",
" 	c None",
".	c #00FFFF",
"+	c #303030",
"@	c #303131",
"#	c #303232",
"$	c #303434",
"                        .",
"                       .+",
"                      .++",
"                     .+++",
"                    .++++",
"                   .+++++",
"                  .++++++",
"                 .+++++++",
"                .++++++++",
"               .+++++++++",
"              .++++++++++",
"             .+++++++++++",
"            .@##$++++++++",
"           .@@@@+++++++++",
"          .++++++++++++++",
"         .+++++++++++++++",
"        .++++++++++++++++",
"       .+++++++++++++++++",
"      .++++++++++++++++++",
"     .+++++++++++++++++++",
"    .++++++++++++++++++++",
"   .+++++++++++++++++++++",
"  .++++++++++++++++++++++",
" .+++++++++++++++++++++++",
".++++++++++++++++++++++++"};
