/* XPM */
static char * top_right_inactive_xpm[] = {
"5 25 4 1",
" 	c None",
".	c #00FFFF",
"+	c #303030",
"@	c #303131",
".    ",
"+.   ",
"++.  ",
"@++. ",
"++++.",
"++++.",
"++++.",
"++++.",
"++++.",
"++++.",
"++++.",
"++++.",
"++++.",
"++++.",
"++++.",
"++++.",
"++++.",
"++++.",
"++@@.",
"++++.",
"++++.",
"++++.",
"++++.",
"++++.",
"++++."};
